<svg width="128" height="128" viewBox="0 0 128 128" fill="none" xmlns="http://www.w3.org/2000/svg">
<rect x="74.6066" y="32.1802" width="5" height="65" transform="rotate(45 74.6066 32.1802)" fill="#9D9FCD"/>
<rect x="99.3553" y="56.9289" width="5" height="65" transform="rotate(45 99.3553 56.9289)" fill="#9D9FCD"/>
<path d="M92.2843 49.8579L95.8198 53.3934L51.6257 97.5876C50.6493 98.5639 49.0664 98.5639 48.0901 97.5876V97.5876C47.1138 96.6113 47.1138 95.0284 48.0901 94.052L92.2843 49.8579Z" fill="#9D9FCD"/>
<path d="M67.5355 25.1091L71.0711 28.6447L26.8769 72.8388C25.9006 73.8152 24.3177 73.8152 23.3413 72.8388V72.8388C22.365 71.8625 22.365 70.2796 23.3413 69.3033L67.5355 25.1091Z" fill="#9D9FCD"/>
<path fill-rule="evenodd" clip-rule="evenodd" d="M28.6447 78.1421C20.8342 85.9526 20.8342 98.6159 28.6447 106.426C36.4552 114.237 49.1185 114.237 56.9289 106.426L53.3934 102.891C47.5355 108.749 38.0381 108.749 32.1802 102.891C26.3223 97.033 26.3223 87.5355 32.1802 81.6777L28.6447 78.1421Z" fill="#FF9900"/>
<path fill-rule="evenodd" clip-rule="evenodd" d="M95.8198 53.3934C101.678 47.5355 101.678 38.0381 95.8198 32.1802C89.962 26.3223 80.4645 26.3223 74.6066 32.1802L78.1422 35.7157C82.0474 31.8105 88.379 31.8105 92.2843 35.7157C96.1895 39.621 96.1895 45.9526 92.2843 49.8579L95.8198 53.3934Z" fill="#FF00B8"/>
<path fill-rule="evenodd" clip-rule="evenodd" d="M102.891 60.4645C112.654 50.7014 112.654 34.8722 102.891 25.1091C93.1278 15.346 77.2986 15.346 67.5355 25.1091L71.0711 28.6447C78.8815 20.8342 91.5448 20.8342 99.3553 28.6447C107.166 36.4552 107.166 49.1185 99.3553 56.9289L102.891 60.4645Z" fill="#FF00B8"/>
</svg>
